<svg width="67" height="32" viewBox="0 0 67 32" fill="none" xmlns="http://www.w3.org/2000/svg">
<g clip-path="url(#clip0_5403_6799)">
<path d="M5.12129 11.1766H5.16361C6.13708 9.39174 7.83007 8.6268 9.81933 8.6268H10.7928V13.5564C10.0733 13.1739 9.39608 13.089 8.63424 13.089C5.79848 13.089 5.07896 14.9588 5.07896 17.4661V23.2882H0V8.79679H5.12129V11.1766Z" fill="white"/>
<path d="M18.5822 8.79688H13.4609V23.2882H18.5822V8.79688Z" fill="white"/>
<path d="M27.5549 10.4544H27.5972C28.5283 9.00954 30.2637 8.32959 31.9566 8.32959C36.2738 8.32959 39.2365 11.9418 39.2365 16.1065C39.2365 20.2712 36.2738 23.7984 31.999 23.7984C30.3483 23.7984 28.613 23.2034 27.5126 21.9285V29.8754L22.4336 32.0002V8.79705H27.5549V10.4544ZM27.3856 16.064C27.3856 17.8913 28.613 19.2937 30.6869 19.2937C32.7608 19.2937 33.9882 17.8913 33.9882 16.064C33.9882 14.2791 32.7608 12.7917 30.6869 12.7917C28.5707 12.7917 27.3856 14.2791 27.3856 16.064Z" fill="white"/>
<path d="M47.0666 8.79688H41.9453V23.2882H47.0666V8.79688Z" fill="white"/>
<path d="M67.0016 16.064C67.0016 20.9936 62.9384 23.7559 58.325 23.7559C53.7116 23.7559 49.6484 20.9936 49.6484 16.064C49.6484 11.1344 53.7116 8.32959 58.325 8.32959C62.9807 8.32959 67.0016 11.1344 67.0016 16.064ZM55.066 16.064C55.066 17.8913 56.2934 19.2937 58.3673 19.2937C60.4412 19.2937 61.6686 17.8913 61.6686 16.064C61.6686 14.2791 60.4412 12.7917 58.3673 12.7917C56.2511 12.7917 55.066 14.2791 55.066 16.064Z" fill="white"/>
<path d="M18.5803 4.80212L13.5859 6.79947V2.03984L18.5803 0V4.80212Z" fill="white"/>
<path d="M47.0217 4.80212L42.0273 6.79947V2.03984L47.0217 0V4.80212Z" fill="white"/>
</g>
<defs>
<clipPath id="clip0_5403_6799">
<rect width="67" height="32" fill="white"/>
</clipPath>
</defs>
</svg>
